<svg width="61" height="31" viewBox="0 0 61 31" fill="none" xmlns="http://www.w3.org/2000/svg">
<path d="M15.9851 30.2776C15.6427 30.2776 15.2775 30.1406 15.0264 29.8667L0.485474 15.3258L14.7981 1.01315C15.3231 0.488129 16.1905 0.488129 16.7384 1.01315C17.2862 1.53818 17.2634 2.40561 16.7384 2.95346L4.36612 15.3258L16.9667 27.9264C17.4917 28.4514 17.4917 29.3188 16.9667 29.8667C16.6928 30.1406 16.3503 30.2776 16.0079 30.2776H15.9851Z" fill="black"/>
<path d="M45.706 30.2777C45.3636 30.2777 44.9983 30.1408 44.7472 29.8668C44.2222 29.3418 44.2222 28.4744 44.7472 27.9265L57.1196 15.5542L44.519 2.95364C43.994 2.42862 43.994 1.56119 44.519 1.01334C45.044 0.465484 45.9114 0.488312 46.4593 1.01334L61.0002 15.5542L46.6875 29.8668C46.4136 30.1408 46.0713 30.2777 45.7288 30.2777H45.706Z" fill="black"/>
</svg>
