<svg width="43" height="47" viewBox="0 0 43 47" fill="none" xmlns="http://www.w3.org/2000/svg">
<path d="M38.4356 17.3523H4.23652C2.20406 17.3523 0.541138 19.0152 0.541138 21.0477V43.0856C0.541138 45.1348 2.20406 46.7809 4.23652 46.7809H38.4356C40.468 46.7809 42.1141 45.1348 42.1141 43.0856V21.0477C42.1141 19.0152 40.468 17.3523 38.4356 17.3523ZM21.336 37.4753C18.3461 37.4753 15.9273 35.0565 15.9273 32.0666C15.9273 29.0767 18.3461 26.6747 21.336 26.6747C24.3259 26.6747 26.7279 29.0935 26.7279 32.0666C26.7279 35.0397 24.3091 37.4753 21.336 37.4753Z" fill="white"/>
<path d="M36.6551 22.4251H29.7682V15.3367C29.7682 10.8015 26.0729 7.10608 21.5376 7.10608C17.0024 7.10608 13.307 10.8015 13.307 15.3367V18.6457H6.42017V15.3367C6.42017 7.0053 13.2062 0.219238 21.5376 0.219238C29.869 0.219238 36.6551 7.0053 36.6551 15.3367V22.4251Z" fill="white"/>
</svg>
