<svg width="63" height="47" viewBox="0 0 63 47" fill="none" xmlns="http://www.w3.org/2000/svg">
<path d="M38.3131 34.4156H9.75495C7.84044 34.4156 6.29059 32.8658 6.29059 30.9513V3.46435C6.29059 1.54984 7.84044 0 9.75495 0H53.538C55.4525 0 57.0023 1.54984 57.0023 3.46435V10.8489H54.2673V3.46435C54.2673 3.0541 53.9482 2.73502 53.538 2.73502H9.75495C9.3447 2.73502 9.0256 3.0541 9.0256 3.46435V30.9513C9.0256 31.3615 9.3447 31.6806 9.75495 31.6806H38.3131V34.4156Z" fill="black"/>
<path d="M38.313 46.8827H3.07687C1.39028 46.8599 0 45.4696 0 43.783V40.1363C0 38.4497 1.39028 37.0594 3.07687 37.0594H38.313V39.7945H3.07687C2.89454 39.7945 2.73501 39.954 2.73501 40.1363V43.783C2.73501 43.9654 2.89454 44.1249 3.07687 44.1249H38.313V46.8827Z" fill="black"/>
<path d="M59.1675 46.8831H44.444C42.5523 46.8831 41.0252 45.356 41.0252 43.4643V16.7751C41.0252 14.8834 42.5523 13.3563 44.444 13.3563H59.1675C61.0592 13.3563 62.5862 14.8834 62.5862 16.7751V43.4643C62.5862 45.356 61.0592 46.8831 59.1675 46.8831ZM44.444 16.1141C44.0793 16.1141 43.7602 16.4104 43.7602 16.7979V43.4871C43.7602 43.8518 44.0565 44.1708 44.444 44.1708H59.1675C59.5321 44.1708 59.8512 43.8745 59.8512 43.4871V16.7979C59.8512 16.4332 59.5549 16.1141 59.1675 16.1141H44.444Z" fill="black"/>
<path d="M57.3669 3.46448H53.9481V10.849H57.3669V3.46448Z" fill="black"/>
<path d="M51.8057 41.2763C52.5861 41.2763 53.2187 40.6436 53.2187 39.8632C53.2187 39.0827 52.5861 38.4501 51.8057 38.4501C51.0252 38.4501 50.3926 39.0827 50.3926 39.8632C50.3926 40.6436 51.0252 41.2763 51.8057 41.2763Z" fill="black"/>
</svg>
