<svg width="54" height="60" viewBox="0 0 54 60" fill="none" xmlns="http://www.w3.org/2000/svg">
<path d="M3.87392 14.4694L1.38208 14.1972C1.77994 10.6374 3.39228 7.26611 5.94694 4.69052C8.94132 1.67519 12.9408 0 17.2125 0C20.6467 0 23.8714 1.047 26.5935 3.05722C29.3157 1.047 32.5404 0 35.9746 0C40.2253 0 44.2248 1.65425 47.2402 4.64863C49.8577 7.28705 51.4281 10.5746 51.805 14.1762L49.3132 14.4485C48.9782 11.4122 47.659 8.6272 45.4603 6.42853C42.9266 3.89481 39.5343 2.5128 35.9746 2.5128C32.7917 2.5128 29.8392 3.58072 27.3892 5.61188L26.5935 6.28193L25.7978 5.61188C23.3688 3.58072 20.3954 2.5128 17.2125 2.5128C13.6318 2.5128 10.2605 3.91574 7.74773 6.44946C5.59093 8.62719 4.22985 11.4541 3.89481 14.4485L3.87392 14.4694Z" fill="black"/>
<path d="M20.7304 34.9484C20.4163 34.9484 20.0813 34.8227 19.8509 34.5715L9.21355 23.9131C7.07769 21.7982 5.90503 18.9713 5.90503 15.956C5.90503 12.9197 7.07771 10.0719 9.23451 7.93607C11.3704 5.80021 14.2181 4.60665 17.2335 4.60665C20.2488 4.60665 23.1385 5.82115 25.2325 7.93607L26.5935 9.29714L27.9756 7.91511C30.1114 5.77925 32.9593 4.58569 35.9955 4.58569C39.0109 4.58569 41.8587 5.77925 43.9736 7.91511C48.3919 12.3334 48.3919 19.5158 43.9736 23.9341L33.3153 34.5715C32.8127 35.0531 32.017 35.0531 31.5354 34.5715C31.0537 34.0899 31.0537 33.2941 31.5354 32.7916L42.1937 22.1542C45.6278 18.72 45.6278 13.1291 42.1937 9.695C40.5395 8.04076 38.3408 7.11942 35.9746 7.11942C33.6293 7.11942 31.4097 8.04076 29.7345 9.695L26.5935 12.836L23.4526 9.695C21.8193 8.04076 19.5578 7.09846 17.2335 7.09846C14.9091 7.09846 12.6686 8.01983 10.9934 9.67408C9.31826 11.3493 8.39689 13.5689 8.41783 15.9141C8.41783 18.2594 9.3392 20.4581 10.9934 22.1123L21.6308 32.7706C22.1124 33.2523 22.1124 34.048 21.6308 34.5505C21.3795 34.8018 21.0655 34.9274 20.7514 34.9274L20.7304 34.9484Z" fill="black"/>
<path d="M32.2473 51.2188H20.9607V49.9624C20.9607 46.1095 15.4955 43.9946 15.4536 43.9736L14.1134 43.4711L26.5935 20.0186L39.0736 43.4711L37.7335 43.9736C37.7335 43.9736 32.2473 46.1095 32.2473 49.9624V51.2188ZM23.3479 48.706H29.8392C30.4883 45.2929 33.713 43.1779 35.5557 42.2147L26.5935 25.3791L17.6313 42.2147C19.474 43.1779 22.6987 45.2929 23.3479 48.706Z" fill="black"/>
<path d="M34.0061 51.2187H19.1598C18.4688 51.2187 17.9034 50.6533 17.9034 49.9623C17.9034 49.2713 18.4688 48.7059 19.1598 48.7059H34.0061C34.6971 48.7059 35.2625 49.2713 35.2625 49.9623C35.2625 50.6533 34.6971 51.2187 34.0061 51.2187Z" fill="black"/>
<path d="M32.2682 59.0292H20.9188V49.9413C20.9188 49.2503 21.4842 48.6849 22.1752 48.6849C22.8662 48.6849 23.4316 49.2503 23.4316 49.9413V56.5164H29.7554V49.9413C29.7554 49.2503 30.3208 48.6849 31.0118 48.6849C31.7028 48.6849 32.2682 49.2503 32.2682 49.9413V59.0292Z" fill="black"/>
<path d="M5.08835 18.5735H0V13.4851H5.08835V18.5735ZM1.67516 16.8983H3.41319V15.1603H1.67516V16.8983Z" fill="black"/>
<path d="M53.187 18.5735H48.0986V13.4851H53.187V18.5735ZM49.7738 16.8983H51.5118V15.1603H49.7738V16.8983Z" fill="black"/>
<path d="M27.8289 22.699H25.3162V36.959H27.8289V22.699Z" fill="black"/>
<path d="M26.5934 43.3664C24.4785 43.3664 22.7615 41.6493 22.7615 39.5344C22.7615 37.4195 24.4785 35.7024 26.5934 35.7024C28.7083 35.7024 30.4254 37.4195 30.4254 39.5344C30.4254 41.6493 28.7083 43.3664 26.5934 43.3664ZM26.5934 38.2152C25.8605 38.2152 25.2742 38.8015 25.2742 39.5344C25.2742 40.2673 25.8605 40.8536 26.5934 40.8536C27.3263 40.8536 27.9126 40.2673 27.9126 39.5344C27.9126 38.8015 27.3263 38.2152 26.5934 38.2152Z" fill="black"/>
</svg>
