<svg width="28" height="27" viewBox="0 0 28 27" fill="none" xmlns="http://www.w3.org/2000/svg">
<path d="M27.4337 13.0812C27.4337 20.3063 21.4189 26.1625 14.0012 26.1625C6.58214 26.1638 0.567383 20.3063 0.567383 13.0812C0.567383 5.85749 6.58214 0 13.9999 0C21.4189 0 27.4323 5.85749 27.4323 13.0812H27.4337Z" fill="#060606"/>
<path d="M17.9822 12.067L17.7585 13.8165C17.7207 14.1091 17.466 14.3283 17.1655 14.3283H14.2544L14.2544 21.6453C13.9472 21.6728 13.6359 21.6859 13.3218 21.6859C12.6183 21.6859 11.9324 21.6177 11.2693 21.4878L11.2693 14.3283H9.03078C8.82593 14.3283 8.65747 14.1643 8.65747 13.9634V11.7743C8.65747 11.5735 8.82458 11.4094 9.03078 11.4094H11.2693V8.12433C11.2693 6.1084 12.9404 4.47571 15.0011 4.47571L17.6129 4.47571C17.8178 4.47571 17.9862 4.63977 17.9862 4.84057V7.02975C17.9862 7.23055 17.8191 7.39461 17.6129 7.39461H15.7463C14.9229 7.39461 14.2544 8.04821 14.2544 8.85406V11.4081L17.3892 11.4081C17.749 11.4081 18.0266 11.7165 17.9822 12.0656V12.067Z" fill="white"/>
</svg>
