<svg width="28" height="27" viewBox="0 0 28 27" fill="none" xmlns="http://www.w3.org/2000/svg">
<path d="M27.4333 13.6939C27.4333 20.919 21.4185 26.7752 14.0008 26.7752C6.58177 26.7752 0.56836 20.9177 0.56836 13.6939C0.567012 6.47016 6.58043 0.612671 13.9995 0.612671C21.4185 0.612671 27.432 6.47016 27.432 13.6939H27.4333Z" fill="#060606"/>
<path d="M10.64 6H17.36C19.92 6 22 8.08 22 10.64V17.36C22 18.5906 21.5111 19.7708 20.641 20.641C19.7708 21.5111 18.5906 22 17.36 22H10.64C8.08 22 6 19.92 6 17.36V10.64C6 9.4094 6.48886 8.22919 7.35902 7.35902C8.22919 6.48886 9.4094 6 10.64 6ZM10.48 7.6C9.71618 7.6 8.98364 7.90343 8.44353 8.44353C7.90343 8.98364 7.6 9.71618 7.6 10.48V17.52C7.6 19.112 8.888 20.4 10.48 20.4H17.52C18.2838 20.4 19.0164 20.0966 19.5565 19.5565C20.0966 19.0164 20.4 18.2838 20.4 17.52V10.48C20.4 8.888 19.112 7.6 17.52 7.6H10.48ZM18.2 8.8C18.4652 8.8 18.7196 8.90536 18.9071 9.09289C19.0946 9.28043 19.2 9.53478 19.2 9.8C19.2 10.0652 19.0946 10.3196 18.9071 10.5071C18.7196 10.6946 18.4652 10.8 18.2 10.8C17.9348 10.8 17.6804 10.6946 17.4929 10.5071C17.3054 10.3196 17.2 10.0652 17.2 9.8C17.2 9.53478 17.3054 9.28043 17.4929 9.09289C17.6804 8.90536 17.9348 8.8 18.2 8.8ZM14 10C15.0609 10 16.0783 10.4214 16.8284 11.1716C17.5786 11.9217 18 12.9391 18 14C18 15.0609 17.5786 16.0783 16.8284 16.8284C16.0783 17.5786 15.0609 18 14 18C12.9391 18 11.9217 17.5786 11.1716 16.8284C10.4214 16.0783 10 15.0609 10 14C10 12.9391 10.4214 11.9217 11.1716 11.1716C11.9217 10.4214 12.9391 10 14 10ZM14 11.6C13.3635 11.6 12.753 11.8529 12.3029 12.3029C11.8529 12.753 11.6 13.3635 11.6 14C11.6 14.6365 11.8529 15.247 12.3029 15.6971C12.753 16.1471 13.3635 16.4 14 16.4C14.6365 16.4 15.247 16.1471 15.6971 15.6971C16.1471 15.247 16.4 14.6365 16.4 14C16.4 13.3635 16.1471 12.753 15.6971 12.3029C15.247 11.8529 14.6365 11.6 14 11.6Z" fill="white"/>
</svg>
