<svg width="28" height="27" viewBox="0 0 28 27" fill="none" xmlns="http://www.w3.org/2000/svg">
<path d="M27.4333 13.9187C27.4333 21.1438 21.4185 27 14.0008 27C6.58177 27 0.568359 21.1425 0.568359 13.9187C0.568359 6.69364 6.58312 0.837463 14.0008 0.837463C21.4199 0.837463 27.4333 6.69495 27.4333 13.9187Z" fill="#060606"/>
<path d="M9.24412 10.4229C10.1998 10.4229 10.9746 9.66845 10.9746 8.73774C10.9746 7.80704 10.1998 7.05255 9.24412 7.05255C8.28842 7.05255 7.51367 7.80704 7.51367 8.73774C7.51367 9.66845 8.28842 10.4229 9.24412 10.4229Z" fill="white"/>
<path d="M10.4296 11.5456H8.06039C7.91823 11.5456 7.80298 11.6578 7.80298 11.7963L7.80298 19.7196C7.80298 19.858 7.91823 19.9702 8.06039 19.9702H10.4296C10.5718 19.9702 10.687 19.858 10.687 19.7196L10.687 11.7963C10.687 11.6578 10.5718 11.5456 10.4296 11.5456Z" fill="white"/>
<path d="M20.4881 14.6344V19.4078C20.4881 19.7163 20.228 19.9696 19.9113 19.9696H18.1809C17.8642 19.9696 17.6041 19.7163 17.6041 19.4078V15.477C17.6041 14.7014 16.9585 14.0727 16.162 14.0727C15.3655 14.0727 14.72 14.7014 14.72 15.477L14.72 19.4078C14.72 19.7163 14.4599 19.9696 14.1432 19.9696H12.4128C12.096 19.9696 11.8359 19.7163 11.8359 19.4078L11.8359 12.1066C11.8359 11.7982 12.096 11.5449 12.4128 11.5449H14.1432C14.4599 11.5449 14.72 11.7982 14.72 12.1066V12.4662C15.2968 11.7391 16.251 11.264 17.3157 11.264C18.9073 11.264 20.4881 12.3875 20.4881 14.6344Z" fill="white"/>
</svg>
