<svg width="28" height="27" viewBox="0 0 28 27" fill="none" xmlns="http://www.w3.org/2000/svg">
<path d="M27.4333 13.3074C27.4333 20.5325 21.4185 26.3887 14.0008 26.3887C6.58177 26.3887 0.568359 20.5312 0.568359 13.3074C0.568359 6.08237 6.58312 0.226196 14.0008 0.226196C21.4199 0.226196 27.4333 6.08368 27.4333 13.3074Z" fill="#060606"/>
<path d="M19.7893 7.7641L8.2113 7.7641C7.06711 7.7641 6.13989 8.66707 6.13989 9.78134L6.13989 16.8332C6.13989 17.9474 7.06711 18.8504 8.2113 18.8504H19.7893C20.9322 18.8504 21.8608 17.9474 21.8608 16.8332V9.78134C21.8608 8.66838 20.9335 7.7641 19.7893 7.7641ZM15.8595 13.7935L12.6398 15.3606C12.2679 15.5417 11.8312 15.2792 11.8312 14.875V11.7408C11.8312 11.3366 12.2679 11.0741 12.6398 11.2539L15.8595 12.821C16.2705 13.0205 16.2705 13.5927 15.8595 13.7935Z" fill="white"/>
</svg>
